<svg xmlns="http://www.w3.org/2000/svg" xmlns:xlink="http://www.w3.org/1999/xlink" version="1.1" width="438.529" height="438.529" style="" xml:space="preserve"><rect id="backgroundrect" width="100%" height="100%" x="0" y="0" fill="none" stroke="none"/>
















<g class="currentLayer" style=""><title>Layer 1</title><g id="svg_1" class="" fill="#ff5353" fill-opacity="1">
	<g id="svg_2" fill="#ff5353" fill-opacity="1">
		<path d="M205.73116744995116,223.77827624511718 c30.271,0 56.108,-10.71 77.518,-32.121 c21.412,-21.411 32.12,-47.248 32.12,-77.515 c0,-30.262 -10.708,-56.1 -32.12,-77.516 C261.83216744995116,15.216276245117186 235.9941674499512,4.5112762451171875 205.73116744995116,4.5112762451171875 S149.62616744995117,15.216276245117186 128.21616744995117,36.6262762451172 c-21.414,21.416 -32.121,47.253 -32.121,77.516 c0,30.267 10.707,56.104 32.121,77.515 C149.63216744995117,213.06827624511718 175.46716744995118,223.77827624511718 205.73116744995116,223.77827624511718 z" id="svg_3" fill="#ff5353" fill-opacity="1"/>
		<path d="M405.72416744995115,339.5472762451172 c-0.6680000000000003,-9.609 -2.002,-19.985 -3.997,-31.121 c-1.999,-11.136 -4.524,-21.457 -7.57,-30.978 c-3.046,-9.514 -7.139,-18.794 -12.278,-27.836 c-5.1370000000000005,-9.041 -11.037,-16.748 -17.703,-23.127 c-6.666,-6.377 -14.801,-11.465 -24.406,-15.271 c-9.617,-3.805 -20.229,-5.711 -31.84,-5.711 c-1.711,0 -5.709,2.046 -11.991,6.139 c-6.276,4.093 -13.367,8.662 -21.266,13.708 c-7.898,5.037 -18.182,9.609 -30.834,13.695 c-12.658,4.093 -25.361,6.14 -38.118,6.14 c-12.752,0 -25.456,-2.047 -38.112,-6.14 c-12.655,-4.086 -22.936,-8.658 -30.835,-13.695 c-7.898,-5.046 -14.987,-9.614 -21.267,-13.708 c-6.283,-4.093 -10.278,-6.139 -11.991,-6.139 c-11.61,0 -22.222,1.9060000000000001 -31.833,5.711 c-9.613,3.806 -17.749,8.898 -24.412,15.271 c-6.6610000000000005,6.3790000000000004 -12.562,14.086 -17.699,23.127 c-5.1370000000000005,9.042 -9.229,18.326 -12.275,27.836 c-3.045,9.521 -5.568,19.842 -7.566,30.978 c-2,11.136 -3.332,21.505 -3.999,31.121 c-0.6660000000000003,9.616 -0.998,19.466 -0.998,29.554 c0,22.836 6.949,40.875 20.842,54.104 c13.896,13.224 32.36,19.835 55.39,19.835 h249.533 c23.028,0 41.49,-6.611 55.388,-19.835 c13.901,-13.229 20.845,-31.265 20.845,-54.104 C406.7301674499512,359.0132762451172 406.3981674499512,349.1632762451172 405.72416744995115,339.5472762451172 z" id="svg_4" fill="#ff5353" fill-opacity="1"/>
	</g>
</g><g id="svg_5">
</g><g id="svg_6">
</g><g id="svg_7">
</g><g id="svg_8">
</g><g id="svg_9">
</g><g id="svg_10">
</g><g id="svg_11">
</g><g id="svg_12">
</g><g id="svg_13">
</g><g id="svg_14">
</g><g id="svg_15">
</g><g id="svg_16">
</g><g id="svg_17">
</g><g id="svg_18">
</g><g id="svg_19">
</g></g></svg>