<svg xmlns="http://www.w3.org/2000/svg" xmlns:xlink="http://www.w3.org/1999/xlink" version="1.1" style="" xml:space="preserve" width="26" height="24"><rect id="backgroundrect" width="100%" height="100%" x="0" y="0" fill="none" stroke="none" style="" class=""/>

<g class="currentLayer" style=""><title>Layer 1</title><g id="svg_1" class="" fill-opacity="1" fill="#20cae5">
	<path d="M23,5 h-2.6 c-1.2,-3 -4.1,-5 -7.4,-5 c-3.3,0 -6.2,2 -7.4,5 H3 c-1.7000000000000002,0 -3,1.3 -3,3 v0.6000000000000001 C0,12.100000000000001 2.9000000000000004,15 6.4,15 h13.3 c3.5,0 6.4,-2.9 6.4,-6.4 V8 C26,6.300000000000001 24.7,5 23,5 zM13,2 c2.2,0 4.1,1.2 5.2,3 H7.800000000000001 C8.9,3.2 10.8,2 13,2 z" id="svg_2" fill="#20cae5"/>
	<path d="M20,17 C20,17 20,17 20,17 l0,2 c0,0.6000000000000001 -0.4,1 -1,1 s-1,-0.4 -1,-1 v-2 H8 v2 c0,0.6000000000000001 -0.4,1 -1,1 s-1,-0.4 -1,-1 v-2 c0,0 0,0 0,0 c-2.4,-0.1 -4.5,-1.2 -6,-2.9 V21 c0,1.7000000000000002 1.3,3 3,3 h20 c1.7000000000000002,0 3,-1.3 3,-3 v-6.9 C24.5,15.8 22.4,16.9 20,17 z" id="svg_3" fill="#20cae5"/>
</g></g></svg>